<svg xmlns="http://www.w3.org/2000/svg" xmlns:xlink="http://www.w3.org/1999/xlink" width="1920" height="264" viewBox="0 0 1920 264"><defs><clipPath id="a"><rect width="1920" height="264" transform="translate(0 699)" fill="#fff" stroke="#707070" stroke-width="1"/></clipPath></defs><g transform="translate(0 -699)" clip-path="url(#a)"><path d="M2063,857.507s222.162-190.05,582.16-82.233S2934.8,914.156,3280.182,930.6c341.723,5.482,388.778-153.5,689.842-155.329" transform="translate(-2063 15)" fill="none" stroke="#707070" stroke-width="4" stroke-dasharray="40"/><g transform="translate(-832.826 264.561)"><g transform="matrix(0.966, 0.259, -0.259, 0.966, 995.718, 438.113)"><path d="M2963.177,498.531c2.613-1.534,17.34-2.148,26.238-15.341.614-1.227,7.67-14.421,16.875-23.932s21.784-17.8,30.375-16.875,4.3,16.875,4.3,16.875a53.362,53.362,0,0,0-4.3,22.4c.307,12.886-15.954,20.25-15.954,20.25s-8.284,5.216-14.421,23.625-43.113,34.44-43.113,34.44Z" transform="translate(-2963.177 -442.313)" fill="#7be495"/><path d="M2963.177,564.971s11.28,1.534,23.246-8.284,18.1-23.318,18.1-23.318,12.886-27.614,25.772-31.6" transform="translate(-2963.177 -479.836)" fill="none" stroke="#707070" stroke-width="0.5"/></g><g transform="translate(945.379 520.32)"><path d="M0,19.563C15.538,13.037,32.4,3.869,59.044.917s39.262,1.675,47.547,7.458c16.47,11.5,11.5,31.076-2.175,35.427s-17.092-3.418-43.2-9.323S0,36.344,0,36.344Z" transform="matrix(0.998, -0.07, 0.07, 0.998, 0, 8.159)" fill="#329d9c"/><path d="M0,9.806s67.124-22.064,98.822,0" transform="matrix(0.998, -0.07, 0.07, 0.998, 1.222, 25.642)" fill="none" stroke="#707070" stroke-width="1"/></g></g><g transform="translate(1779.862 742.606)"><path d="M3352.677,483.853c-9.034-8.283-27.209-23.247-73.99-36.01s-39.144,38.745,0,42.848,73.99,16.866,73.99,16.866Z" transform="translate(-3246.401 -445.815)" fill="#329d9c"/><path d="M3110.045,464.4s-37.344-24.159-78.824-25.982" transform="translate(-3003.769 -415.04)" fill="none" stroke="#707070" stroke-width="0.5"/></g><g transform="translate(699.854 74.255)"><path d="M3222.767,684.222c-14.464-33.236-5.539-23.7-8.617-53.854-2.783-22.687-31.743-23.567-37.237-17.233-3.312,3.563-4.472,11.81-2.235,15.54,6.751,11.383,5.8,4.849,13.006,18.619,9.232,25.542,23.7,36.929,23.7,36.929Z" transform="translate(-2065 15)" fill="#7be495"/><path d="M3232.338,697.919c-4.462-9.5-12.073-17.28-13.493-26.275-2.367-20.595-14.914-35.508-14.914-35.508" transform="translate(-2079.82 1.303)" fill="none" stroke="#707070" stroke-width="1"/></g><circle cx="132" cy="132" r="132" transform="translate(-75 699)" fill="#56c596"/><g transform="translate(-40 733)" fill="none" stroke="#fff" stroke-width="1"><circle cx="97.5" cy="97.5" r="97.5" stroke="none"/><circle cx="97.5" cy="97.5" r="97" fill="none"/></g><circle cx="63.5" cy="63.5" r="63.5" transform="translate(1833 711)" fill="#56c596"/><circle cx="86" cy="86" r="86" transform="translate(1764 774)" fill="#7be495"/><circle cx="61.5" cy="61.5" r="61.5" transform="translate(-21 772)" fill="#fff"/><circle cx="47" cy="47" r="47" transform="translate(1842 813)" fill="#fff"/></g></svg>